<?xml version="1.0" encoding="UTF-8" standalone="no"?>
<svg
   xmlns:dc="http://purl.org/dc/elements/1.1/"
   xmlns:cc="http://creativecommons.org/ns#"
   xmlns:rdf="http://www.w3.org/1999/02/22-rdf-syntax-ns#"
   xmlns:svg="http://www.w3.org/2000/svg"
   xmlns="http://www.w3.org/2000/svg"
   xmlns:xlink="http://www.w3.org/1999/xlink"
   xmlns:sodipodi="http://sodipodi.sourceforge.net/DTD/sodipodi-0.dtd"
   xmlns:inkscape="http://www.inkscape.org/namespaces/inkscape"
   viewBox="0 0 126.96412 77.590442"
   id="svg2"
   version="1.1"
   inkscape:version="0.48.3.1 r9886"
   width="100%"
   height="100%"
   sodipodi:docname="logo-icon-osl.svg"
   inkscape:export-filename="/home/rafael/Escritorio/OC7/usc/core/img/logo-icon-osl.png"
   inkscape:export-xdpi="43.950001"
   inkscape:export-ydpi="43.950001">
  <metadata
     id="metadata30">
    <rdf:RDF>
      <cc:Work
         rdf:about="">
        <dc:format>image/svg+xml</dc:format>
        <dc:type
           rdf:resource="http://purl.org/dc/dcmitype/StillImage" />
        <dc:title></dc:title>
      </cc:Work>
    </rdf:RDF>
  </metadata>
  <sodipodi:namedview
     pagecolor="#ffffff"
     bordercolor="#666666"
     borderopacity="1"
     objecttolerance="10"
     gridtolerance="10"
     guidetolerance="10"
     inkscape:pageopacity="0"
     inkscape:pageshadow="2"
     inkscape:window-width="1600"
     inkscape:window-height="824"
     id="namedview28"
     showgrid="false"
     fit-margin-top="0"
     fit-margin-left="0"
     fit-margin-right="0"
     fit-margin-bottom="0"
     inkscape:zoom="1.3203125"
     inkscape:cx="301.46723"
     inkscape:cy="-4.4415445"
     inkscape:window-x="0"
     inkscape:window-y="24"
     inkscape:window-maximized="1"
     inkscape:current-layer="svg2" />
  <defs
     id="defs4">
    <linearGradient
       gradientUnits="userSpaceOnUse"
       id="linearGradient4155"
       x1="442.44727"
       x2="449.51724"
       y1="555.36719"
       y2="690.72766">
      <stop
         offset="0"
         stop-color="#96beff"
         id="stop7" />
      <stop
         offset="1"
         stop-color="#09719f"
         id="stop9" />
    </linearGradient>
    <linearGradient
       gradientUnits="userSpaceOnUse"
       id="linearGradient4157"
       x1="-139.40105"
       x2="-111.84524"
       y1="490.71738"
       y2="632.13873">
      <stop
         offset="0"
         stop-color="#fff"
         id="stop12" />
      <stop
         offset="1"
         stop-color="#fff"
         stop-opacity="0"
         id="stop14" />
    </linearGradient>
    <linearGradient
       inkscape:collect="always"
       xlink:href="#linearGradient4155"
       id="linearGradient3084"
       gradientUnits="userSpaceOnUse"
       x1="442.44727"
       y1="555.36719"
       x2="449.51724"
       y2="690.72766" />
    <linearGradient
       inkscape:collect="always"
       xlink:href="#linearGradient4157"
       id="linearGradient3086"
       gradientUnits="userSpaceOnUse"
       x1="-139.40105"
       y1="490.71738"
       x2="-111.84524"
       y2="632.13873" />
    <linearGradient
       inkscape:collect="always"
       xlink:href="#linearGradient4155"
       id="linearGradient3088"
       gradientUnits="userSpaceOnUse"
       x1="442.44727"
       y1="555.36719"
       x2="449.51724"
       y2="690.72766" />
    <linearGradient
       inkscape:collect="always"
       xlink:href="#linearGradient4157"
       id="linearGradient3090"
       gradientUnits="userSpaceOnUse"
       x1="-139.40105"
       y1="490.71738"
       x2="-111.84524"
       y2="632.13873" />
    <linearGradient
       inkscape:collect="always"
       xlink:href="#linearGradient4155"
       id="linearGradient3128"
       gradientUnits="userSpaceOnUse"
       x1="442.44727"
       y1="555.36719"
       x2="449.51724"
       y2="690.72766" />
    <linearGradient
       inkscape:collect="always"
       xlink:href="#linearGradient4157"
       id="linearGradient3130"
       gradientUnits="userSpaceOnUse"
       x1="-139.40105"
       y1="490.71738"
       x2="-111.84524"
       y2="632.13873" />
    <linearGradient
       inkscape:collect="always"
       xlink:href="#linearGradient4155"
       id="linearGradient3132"
       gradientUnits="userSpaceOnUse"
       x1="442.44727"
       y1="555.36719"
       x2="449.51724"
       y2="690.72766" />
    <linearGradient
       inkscape:collect="always"
       xlink:href="#linearGradient4157"
       id="linearGradient3134"
       gradientUnits="userSpaceOnUse"
       x1="-139.40105"
       y1="490.71738"
       x2="-111.84524"
       y2="632.13873" />
  </defs>
  <g
     transform="matrix(0.27156566,0,0,0.27156566,-70.229742,-142.59317)"
     id="g16"
     inkscape:export-filename="/home/rafael/Escritorio/OC7/usc/core/img/logo-icon-osl.png"
     inkscape:export-xdpi="43.950001"
     inkscape:export-ydpi="43.950001">
    <path
       d="m 417.20429,525.07805 c -32.47861,0 -61.35312,15.4891 -79.625,39.5 -3.98974,-0.74567 -8.1075,-1.125 -12.3125,-1.125 -36.80188,0 -66.65626,29.8544 -66.65625,66.65625 10e-6,36.80185 29.85437,66.68749 66.65625,66.6875 6.75152,0 13.26306,-1.00612 19.40625,-2.875 18.22469,19.18213 44.00349,31.15623 72.53125,31.15625 15.96209,0 31.04628,-3.74613 44.4375,-10.40625 13.39122,6.66012 28.47541,10.40624 44.4375,10.40625 32.87277,0 62.04923,-15.89614 80.28125,-40.40625 29.89462,-0.2526 54.0625,-24.60861 54.0625,-54.5625 0,-27.60887 -20.53053,-50.42659 -47.15625,-54.03125 -17.15145,-30.43997 -49.78084,-51 -87.1875,-51 -15.96456,0 -31.04474,3.7442 -44.4375,10.40625 -13.39276,-6.66205 -28.47294,-10.40625 -44.4375,-10.40625 z"
       id="path18"
       inkscape:connector-curvature="0"
       style="fill:url(#linearGradient3128);fill-rule:evenodd" />
    <path
       d="m -116.15625,516.8125 c -28.48888,0 -54.19726,13.85076 -70.125,34.78125 -2.76908,3.64414 -7.18818,5.37014 -11.6875,4.53125 -3.26379,-0.61 -6.64584,-0.9375 -10.125,-0.9375 -29.07836,0 -54.71875,25.64045 -54.71875,54.71875 0,3.82889 0.28827,5.13448 0.1875,3.53125 0.87184,13.72815 10.87982,25.14751 24.375,27.8125 32.07089,6.34387 75.54751,3.47967 127.21875,-9.34375 41.69565,-10.34775 86.5702,-26.17276 131.125,-44 9.98469,-4.00373 17.09886,-13.00018 18.69306,-23.6389 1.5942,-10.63872 -2.57048,-21.3253 -10.94306,-28.07985 -14.97081,-12.05443 -34.36065,-19.375 -55.125,-19.375 -13.95146,0 -27.41827,3.3329 -39.125,9.15625 -3.37158,1.67708 -7.25342,1.67708 -10.625,0 -11.70672,-5.82335 -25.17354,-9.15625 -39.125,-9.15625 z"
       transform="translate(531.34,16.1624)"
       id="path20"
       inkscape:connector-curvature="0"
       style="fill:url(#linearGradient3130);fill-rule:evenodd" />
  </g>
  <g
     transform="matrix(0.27156566,0,0,0.27156566,-46.952789,-119.31586)"
     id="g22"
     inkscape:export-filename="/home/rafael/Escritorio/OC7/usc/core/img/logo-icon-osl.png"
     inkscape:export-xdpi="43.950001"
     inkscape:export-ydpi="43.950001">
    <path
       d="m 417.20429,525.07805 c -32.47861,0 -61.35312,15.4891 -79.625,39.5 -3.98974,-0.74567 -8.1075,-1.125 -12.3125,-1.125 -36.80188,0 -66.65626,29.8544 -66.65625,66.65625 10e-6,36.80185 29.85437,66.68749 66.65625,66.6875 6.75152,0 13.26306,-1.00612 19.40625,-2.875 18.22469,19.18213 44.00349,31.15623 72.53125,31.15625 15.96209,0 31.04628,-3.74613 44.4375,-10.40625 13.39122,6.66012 28.47541,10.40624 44.4375,10.40625 32.87277,0 62.04923,-15.89614 80.28125,-40.40625 29.89462,-0.2526 54.0625,-24.60861 54.0625,-54.5625 0,-27.60887 -20.53053,-50.42659 -47.15625,-54.03125 -17.15145,-30.43997 -49.78084,-51 -87.1875,-51 -15.96456,0 -31.04474,3.7442 -44.4375,10.40625 -13.39276,-6.66205 -28.47294,-10.40625 -44.4375,-10.40625 z"
       id="path24"
       inkscape:connector-curvature="0"
       style="fill:url(#linearGradient3132);fill-rule:evenodd" />
    <path
       d="m -116.15625,516.8125 c -28.48888,0 -54.19726,13.85076 -70.125,34.78125 -2.76908,3.64414 -7.18818,5.37014 -11.6875,4.53125 -3.26379,-0.61 -6.64584,-0.9375 -10.125,-0.9375 -29.07836,0 -54.71875,25.64045 -54.71875,54.71875 0,3.82889 0.28827,5.13448 0.1875,3.53125 0.87184,13.72815 10.87982,25.14751 24.375,27.8125 32.07089,6.34387 75.54751,3.47967 127.21875,-9.34375 41.69565,-10.34775 86.5702,-26.17276 131.125,-44 9.98469,-4.00373 17.09886,-13.00018 18.69306,-23.6389 1.5942,-10.63872 -2.57048,-21.3253 -10.94306,-28.07985 -14.97081,-12.05443 -34.36065,-19.375 -55.125,-19.375 -13.95146,0 -27.41827,3.3329 -39.125,9.15625 -3.37158,1.67708 -7.25342,1.67708 -10.625,0 -11.70672,-5.82335 -25.17354,-9.15625 -39.125,-9.15625 z"
       transform="translate(531.34,16.1624)"
       id="path26"
       inkscape:connector-curvature="0"
       style="fill:url(#linearGradient3134);fill-rule:evenodd" />
  </g>
</svg>
